<!-- <svg width="16" height="20" viewBox="0 0 16 20" fill="none" xmlns="http://www.w3.org/2000/svg">
<path d="M15.045 5.401C15.423 5.023 15.631 4.521 15.631 3.987C15.631 3.453 15.423 2.951 15.045 2.573L13.459 0.987001C13.081 0.609001 12.579 0.401001 12.045 0.401001C11.511 0.401001 11.009 0.609001 10.632 0.986001L0 11.585V16H4.413L15.045 5.401ZM12.045 2.401L13.632 3.986L12.042 5.57L10.456 3.985L12.045 2.401ZM2 14V12.415L9.04 5.397L10.626 6.983L3.587 14H2ZM0 18H16V20H0V18Z" fill="#637381"/>
</svg> -->

<svg width="20" height="20" xmlns="http://www.w3.org/2000/svg" viewBox="0 0 576 512"><!-- Font Awesome Pro 5.15.4 by @fontawesome - https://fontawesome.com License - https://fontawesome.com/license (Commercial License) -->
<path d="M402.3 344.9l32-32c5-5 13.7-1.5 13.7 5.7V464c0 26.5-21.5 48-48 48H48c-26.5 0-48-21.5-48-48V112c0-26.5 21.5-48 48-48h273.5c7.1 0 10.7 8.6 5.7 13.7l-32 32c-1.5 1.5-3.5 2.3-5.7 2.3H48v352h352V350.5c0-2.1.8-4.1 2.3-5.6zm156.6-201.8L296.3 405.7l-90.4 10c-26.2 2.9-48.5-19.2-45.6-45.6l10-90.4L432.9 17.1c22.9-22.9 59.9-22.9 82.7 0l43.2 43.2c22.9 22.9 22.9 60 .1 82.8zM460.1 174L402 115.9 216.2 301.8l-7.3 65.3 65.3-7.3L460.1 174zm64.8-79.7l-43.2-43.2c-4.1-4.1-10.8-4.1-14.8 0L436 82l58.1 58.1 30.9-30.9c4-4.2 4-10.8-.1-14.9z" fill="#545759"/>
</svg>